<svg xmlns="http://www.w3.org/2000/svg" width="48.11" height="48.03" viewBox="0 0 48.11 48.03" id="hashtag-small" data-supported-dps="48x48">
  <circle cx="24.05" cy="24.02" r="24" fill="#9db3c8"/>
  <circle cx="24.05" cy="24.02" r="18" fill="#f9fafb"/>
  <circle cx="24.05" cy="24.02" r="16" fill="#dce6f1"/>
  <path d="M34.05 19h-4.51l.5-4.89a1 1 0 00-.62-1.26 1 1 0 00-1.27.62 1.06 1.06 0 000 .43l-.57 5.1h-6l.5-4.89a1 1 0 00-.62-1.26 1 1 0 00-1.27.62 1.06 1.06 0 00-.05.43l-.56 5.1h-4.53a1 1 0 000 2h4.32l-.61 6h-4.71a1 1 0 000 2h4.51l-.51 4.89A1 1 0 0019 35a1 1 0 001.1-.9l.52-5.1h6l-.52 4.89A1 1 0 0027 35a1 1 0 001.1-.9l.52-5.1h4.48a1 1 0 000-2h-4.37l.61-6h4.71a1 1 0 000-2zm-7.29 8h-6l.61-6h6z" fill="#38434f"/>
</svg>
